HIERARCHY
ROOT Hips
{
	OFFSET -0.001795 -0.223333 0.028219
	CHANNELS 6 Xposition Yposition Zposition Zrotation Yrotation Xrotation 
	JOINT LeftUpLeg
	{
		OFFSET 0.069520 -0.091406 -0.006815
		CHANNELS 3 Zrotation Yrotation Xrotation
		JOINT LeftLeg
		{
			OFFSET 0.034277 -0.375199 -0.004496
			CHANNELS 3 Zrotation Yrotation Xrotation
			JOINT LeftFoot
			{
				OFFSET -0.013596 -0.397961 -0.043693
				CHANNELS 3 Zrotation Yrotation Xrotation
				JOINT LeftToe
				{
					OFFSET 0.026358 -0.055791 0.119288
					CHANNELS 3 Zrotation Yrotation Xrotation
					End Site
					{
						OFFSET 0.000000 0.000000 0.000000
					}
				}
			}
		}
	}
	JOINT RightUpLeg
	{
		OFFSET -0.067670 -0.090522 -0.004320
		CHANNELS 3 Zrotation Yrotation Xrotation
		JOINT RightLeg
		{
			OFFSET -0.038290 -0.382569 -0.008850
			CHANNELS 3 Zrotation Yrotation Xrotation
			JOINT RightFoot
			{
				OFFSET 0.015774 -0.398415 -0.042312
				CHANNELS 3 Zrotation Yrotation Xrotation
				JOINT RightToe
				{
					OFFSET -0.025372 -0.048144 0.123348
					CHANNELS 3 Zrotation Yrotation Xrotation
					End Site
					{
						OFFSET 0.000000 0.000000 0.000000
					}
				}
			}
		}
	}
	JOINT Spine
	{
		OFFSET -0.002533 0.108963 -0.026696
		CHANNELS 3 Zrotation Yrotation Xrotation
		JOINT Spine1
		{
			OFFSET 0.005487 0.135180 0.001092
			CHANNELS 3 Zrotation Yrotation Xrotation
			JOINT Spine2
			{
				OFFSET 0.001457 0.052922 0.025425
				CHANNELS 3 Zrotation Yrotation Xrotation
				JOINT Neck
				{
					OFFSET -0.002778 0.213870 -0.042857
					CHANNELS 3 Zrotation Yrotation Xrotation
					JOINT Head
					{
						OFFSET 0.005152 0.064970 0.051349
						CHANNELS 3 Zrotation Yrotation Xrotation
						End Site
						{
							OFFSET 0.000000 0.000000 0.000000
						}
					}
				}
				JOINT LeftShoulder
				{
					OFFSET 0.078845 0.121749 -0.034090
					CHANNELS 3 Zrotation Yrotation Xrotation
					JOINT LeftArm
					{
						OFFSET 0.090977 0.030469 -0.008868
						CHANNELS 3 Zrotation Yrotation Xrotation
						JOINT LeftForeArm
						{
							OFFSET 0.259612 -0.012772 -0.027456
							CHANNELS 3 Zrotation Yrotation Xrotation
							JOINT LeftHand
							{
								OFFSET 0.249234 0.008986 -0.001171
								CHANNELS 3 Zrotation Yrotation Xrotation
								End Site
								{
									OFFSET 0.000000 0.000000 0.000000
								}
							}
						}
					}
				}
				JOINT RightShoulder
				{
					OFFSET -0.081759 0.118833 -0.038615
					CHANNELS 3 Zrotation Yrotation Xrotation
					JOINT RightArm
					{
						OFFSET -0.096012 0.032551 -0.009143
						CHANNELS 3 Zrotation Yrotation Xrotation
						JOINT RightForeArm
						{
							OFFSET -0.253742 -0.013329 -0.021401
							CHANNELS 3 Zrotation Yrotation Xrotation
							JOINT RightHand
							{
								OFFSET -0.255298 0.007772 -0.005559
								CHANNELS 3 Zrotation Yrotation Xrotation
								End Site
								{
									OFFSET 0.000000 0.000000 0.000000
								}
							}
						}
					}
				}
			}
		}
	}
}
MOTION
Frames: 12
Frame Time: 0.050000
0.000000 0.986240 0.000000 -2.542754 4.314185 -1.912909 7.983856 -0.134822 0.791590 0.209950 0.007443 -0.782159 -2.800461 2.093718 15.559832 0.000000 0.000000 0.000000 -0.497189 -0.042890 0.468269 -1.783805 0.324164 2.239410 -3.451239 -11.215972 13.474041 0.000000 0.000000 0.000000 -1.273384 -0.136857 4.399663 -1.730234 0.981992 -7.211673 -0.855453 -0.593866 5.425610 2.440453 -0.823434 -9.707027 0.000000 0.000000 0.000000 19.826517 -1.453069 2.186165 0.443952 -23.615289 -1.388350 29.412034 2.032665 0.366576 0.000000 0.000000 0.000000 -21.090230 0.844010 1.352848 1.232697 21.863768 -1.033348 -18.688458 -3.192127 0.920334 0.000000 0.000000 0.000000 
-0.000671 0.986322 0.000320 -2.609264 4.805210 -1.867385 7.452639 -0.117956 1.336463 0.655191 0.029524 -2.402065 -3.320704 1.352033 15.537847 0.000000 0.000000 0.000000 -0.876314 -0.119875 1.300122 -1.711132 0.263963 1.245693 -3.967974 -12.004323 12.604144 0.000000 0.000000 0.000000 -1.399429 -0.113829 3.812037 -1.902163 1.019025 -4.706179 0.473677 -2.780713 3.480421 -1.463725 1.798175 -12.020243 0.000000 0.000000 0.000000 16.680559 0.980471 1.190348 -4.194027 -21.398295 -0.785039 26.744506 -3.128686 -0.487195 0.000000 0.000000 0.000000 -19.161404 -0.364011 1.564918 4.033200 19.856669 -0.754541 -16.876580 1.928870 0.126356 0.000000 0.000000 0.000000 
-0.001094 0.984897 0.000856 -2.617046 4.085798 -1.743203 7.356235 -0.109109 1.120646 1.243853 -0.052565 -1.656103 -2.836517 1.628589 14.624540 0.000000 0.000000 0.000000 -0.679748 -0.175538 1.843974 -1.299957 0.165565 0.322266 -4.180084 -12.524698 12.941275 0.000000 0.000000 0.000000 -1.015945 -0.111104 3.410743 -1.528957 0.878972 -6.291406 -1.132675 -1.093425 6.609572 0.220891 0.919731 -13.034386 0.000000 0.000000 0.000000 15.833966 1.531672 1.180546 -8.994954 -21.206510 -0.518566 22.695360 -4.125467 -0.667689 0.000000 0.000000 0.000000 -15.353160 -1.772278 0.584113 11.040963 16.994478 -0.349570 -20.263737 5.208812 -0.242819 0.000000 0.000000 0.000000 
-0.001291 0.983860 0.001177 -2.879384 5.045898 -2.198486 7.358474 -0.098945 2.137888 1.900625 -0.062819 -2.570723 -3.485274 0.797559 14.725945 0.000000 0.000000 0.000000 -0.474676 -0.278332 2.753406 -0.797889 0.063331 -0.669875 -4.720279 -13.617056 15.115420 0.000000 0.000000 0.000000 -0.656526 -0.129768 3.571246 -1.744784 0.966452 -5.234668 -0.237866 -3.081093 7.085246 -1.211729 1.745262 -14.142639 0.000000 0.000000 0.000000 11.424925 1.808124 0.444323 -14.713171 -18.352453 -0.341850 21.218570 -7.513231 -1.006009 0.000000 0.000000 0.000000 -11.556524 -1.808971 0.484783 14.666056 16.199215 -0.241741 -18.064607 5.420911 -0.306126 0.000000 0.000000 0.000000 
-0.001702 0.981259 0.000924 -2.750039 5.103609 -2.475293 7.802372 -0.118642 1.842565 1.191455 -0.050611 -1.550742 -3.557172 0.316652 13.875085 0.000000 0.000000 0.000000 -0.036792 -0.312991 2.943181 -0.848263 0.054825 -0.981364 -4.801063 -13.706549 14.550784 0.000000 0.000000 0.000000 -1.113684 -0.124361 3.778907 -1.301739 0.763578 -4.587321 -0.399059 -2.361444 7.019850 -1.214339 1.824672 -14.113130 0.000000 0.000000 0.000000 8.003013 2.159850 0.119788 -19.911854 -17.290543 -0.241336 20.489577 -9.699320 -1.317995 0.000000 0.000000 0.000000 -7.270150 -1.515240 0.107245 21.019419 12.685051 -0.418157 -16.057553 7.385518 -0.430942 0.000000 0.000000 0.000000 
-0.001992 0.980256 0.000254 -2.287216 5.837938 -2.821453 7.531922 -0.117089 1.736860 0.913206 -0.034460 -1.323370 -3.540207 0.313314 13.584744 0.000000 0.000000 0.000000 -0.478177 -0.292603 2.851773 -0.528491 0.029950 -0.775978 -4.613588 -13.293342 14.614969 0.000000 0.000000 0.000000 -1.596234 -0.128600 4.300036 -0.889369 0.578211 -4.054695 -0.264015 -2.836124 7.252370 -0.948757 1.727859 -15.751989 0.000000 0.000000 0.000000 4.694904 2.579549 -0.356503 -26.058053 -15.600946 -0.353859 17.697847 -12.592183 -1.413803 0.000000 0.000000 0.000000 -4.437516 -1.004034 0.027531 28.243698 11.497938 -0.567010 -13.268266 6.412633 -0.230671 0.000000 0.000000 0.000000 
-0.002114 0.979184 -0.000816 -2.327411 5.528307 -3.231641 7.726712 -0.112759 1.620437 0.784376 -0.060534 -0.431903 -3.032317 0.913856 13.173959 0.000000 0.000000 0.000000 -0.429389 -0.303675 2.947680 -0.467615 0.021806 -0.802216 -4.272685 -12.679953 14.204527 0.000000 0.000000 0.000000 -1.531939 -0.154359 4.986258 -0.767194 0.512448 -3.767769 -0.071862 -2.149652 7.729283 -0.194331 1.382425 -16.851548 0.000000 0.000000 0.000000 0.815094 2.831925 -0.853980 -31.357100 -14.220678 -0.606929 15.788896 -13.556419 -1.321298 0.000000 0.000000 0.000000 -0.891111 -0.634456 -0.150133 34.764497 9.375971 -1.131569 -10.918504 6.883046 -0.168308 0.000000 0.000000 0.000000 
-0.001849 0.979017 -0.001723 -2.013285 4.910816 -3.101486 7.373413 -0.092252 1.475505 0.627070 -0.055571 -0.195777 -2.411026 1.647159 12.740648 0.000000 0.000000 0.000000 -0.943923 -0.214121 2.232446 0.061913 -0.011623 -0.117711 -3.736534 -11.667352 13.282191 0.000000 0.000000 0.000000 -1.376058 -0.180870 5.664604 -0.776025 0.520622 -4.157653 0.222240 -1.924599 8.509137 0.646706 0.905497 -17.676322 0.000000 0.000000 0.000000 -2.295571 3.369712 -1.413050 -36.506399 -11.477424 -1.408376 12.160699 -15.638277 -1.024546 0.000000 0.000000 0.000000 2.152405 -0.263478 -0.244480 40.313060 8.018111 -1.712407 -8.658428 8.549391 -0.158150 0.000000 0.000000 0.000000 
-0.001162 0.979553 -0.001898 -1.693795 4.482959 -2.671287 6.909025 -0.092126 0.818182 0.484645 -0.059736 0.257467 -2.101611 2.049021 12.651314 0.000000 0.000000 0.000000 -1.479698 -0.150987 1.738424 0.087577 -0.002074 0.217477 -3.358041 -10.929619 12.673297 0.000000 0.000000 0.000000 -1.273439 -0.189490 5.876146 -0.717972 0.479642 -3.875864 0.315113 -1.922324 8.622223 0.184868 1.206112 -18.467457 0.000000 0.000000 0.000000 -4.795235 4.392766 -2.105028 -41.977700 -8.487932 -2.519027 10.656070 -18.420795 -0.950640 0.000000 0.000000 0.000000 4.249039 -0.299385 -0.426634 45.603113 6.639853 -2.369226 -7.823091 10.698520 -0.191099 0.000000 0.000000 0.000000 
0.000011 0.979490 -0.001273 -1.346536 4.082681 -2.336181 6.304206 -0.084772 0.483597 0.544340 -0.053477 -0.061344 -1.648247 2.948529 13.215762 0.000000 0.000000 0.000000 -2.084916 -0.090703 1.243062 0.219673 -0.001424 0.664814 -3.034589 -10.232529 11.843037 0.000000 0.000000 0.000000 -1.182888 -0.196412 6.031360 -0.610483 0.418699 -3.636854 0.512595 -2.226655 8.343441 0.594165 0.888535 -18.364535 0.000000 0.000000 0.000000 -6.393924 4.787088 -2.442836 -46.127283 -5.498860 -3.792252 8.206541 -19.825737 -0.573485 0.000000 0.000000 0.000000 4.849579 -0.065983 -0.420099 49.143016 5.905607 -2.787174 -7.037600 13.067069 -0.213457 0.000000 0.000000 0.000000 
0.001324 0.979043 -0.000121 -1.055872 3.991785 -2.106015 5.519824 -0.077841 0.243724 0.934123 -0.089413 -0.160754 -1.627127 2.880971 12.996212 0.000000 0.000000 0.000000 -2.259235 -0.059822 0.940610 0.063633 0.029194 0.977896 -3.433756 -10.910805 11.267223 0.000000 0.000000 0.000000 -0.860983 -0.224113 6.367863 -0.665898 0.456198 -4.124839 0.608777 -2.887403 8.755454 0.160082 1.052074 -18.303556 0.000000 0.000000 0.000000 -7.980378 5.423403 -2.855709 -48.776371 -2.679040 -5.127778 6.721960 -22.323287 -0.307696 0.000000 0.000000 0.000000 5.481687 -0.074263 -0.521137 51.294792 5.230621 -3.241215 -7.406092 16.244563 -0.362610 0.000000 0.000000 0.000000 
0.002390 0.978563 0.001310 -0.867348 3.692737 -2.217885 5.100075 -0.069236 0.124144 1.150151 -0.140517 0.457477 -1.459197 3.001073 12.707642 0.000000 0.000000 0.000000 -2.738019 -0.019461 0.544486 0.173087 0.042458 1.718747 -3.299292 -10.496641 10.148159 0.000000 0.000000 0.000000 -0.525777 -0.253216 6.661563 -0.515142 0.390422 -4.251371 0.290462 -2.843189 9.060612 0.673849 0.772145 -18.860197 0.000000 0.000000 0.000000 -8.280795 5.816410 -3.051965 -51.822889 -0.927011 -6.197225 5.360133 -24.395851 -0.029418 0.000000 0.000000 0.000000 6.322771 -0.448052 -0.753454 52.304595 5.219516 -3.333419 -8.323544 20.881504 -0.657851 0.000000 0.000000 0.000000 
